<svg width="35" height="36" viewBox="0 0 35 36" fill="none" xmlns="http://www.w3.org/2000/svg">
<path d="M13.6598 15.509C11.631 17.1173 8.68253 16.7765 7.0742 14.7477L2.91225 9.49773C1.30393 7.46896 1.64477 4.52051 3.67355 2.91218C5.70233 1.30386 8.65077 1.64471 10.2591 3.67349L14.421 8.92347C16.0294 10.9522 15.6885 13.9007 13.6598 15.509Z" fill="#F598CA"/>
<path d="M21.3393 15.509C23.368 17.1173 26.3165 16.7765 27.9248 14.7477L32.0868 9.49773C33.6951 7.46896 33.3542 4.52051 31.3255 2.91218C29.2967 1.30386 26.3482 1.64471 24.7399 3.67349L20.578 8.92347C18.9697 10.9522 19.3105 13.9007 21.3393 15.509Z" fill="#F598CA"/>
<path d="M0.999023 18.6501C0.999023 9.53745 8.38633 2.15015 17.499 2.15015C26.6117 2.15015 33.999 9.53745 33.999 18.6501C33.999 27.7628 26.6117 35.1501 17.499 35.1501C8.38633 35.1501 0.999023 27.7628 0.999023 18.6501Z" fill="url(#paint0_radial_3348_1822)"/>
<ellipse cx="23.274" cy="14.8753" rx="1.65" ry="2.8875" fill="black"/>
<ellipse cx="12.5489" cy="14.8753" rx="1.65" ry="2.8875" fill="black"/>
<path d="M8.09958 22.6689C8.24019 22.5127 8.49963 22.4854 8.67885 22.6078C12.2353 25.0392 15.0151 26.1491 17.683 26.1245C20.351 26.0998 23.0071 24.9398 26.3148 22.6113C26.492 22.4866 26.7517 22.5104 26.8949 22.6647C27.038 22.819 27.0107 23.0453 26.8337 23.1701C23.4832 25.5287 20.6439 26.8159 17.6918 26.8433C14.7397 26.8706 11.7737 25.6375 8.16967 23.1736C7.99048 23.0511 7.95905 22.825 8.09958 22.6689Z" fill="black"/>
<defs>
<radialGradient id="paint0_radial_3348_1822" cx="0" cy="0" r="1" gradientUnits="userSpaceOnUse" gradientTransform="translate(17.499 18.6501) rotate(81.6897) scale(14.8408)">
<stop stop-color="#F9BFDE"/>
<stop offset="1" stop-color="#F598CA"/>
</radialGradient>
</defs>
</svg>
